PathFileType	4	(X/Y/Z)	C:/Users/beibeiliu/ov580/test_trc/User3\out1_training_dense_right.trc
DataRate	CameraRate	NumFrames	NumMarkers	Units	OrigDataRate	OrigDataStartFrame	OrigNumFrames
120	120	14	19	mm	120	438	500
Frame#	Time	ThumbCMC			ThumbMCP			ThumbIP			ThumbTip			IndexMCP			IndexPIP			IndexTip			MiddleMCP			MiddlePIP			MiddleTip			RingMCP			RingPIP			RingTip			PinkyMCP			PinkyPIP			PinkyTip			BackHand1			BackHand2			BackHand3	
		X0	Y0	Z0	X1	Y1	Z1	X2	Y2	Z2	X3	Y3	Z3	X4	Y4	Z4	X5	Y5	Z5	X6	Y6	Z6	X7	Y7	Z7	X8	Y8	Z8	X9	Y9	Z9	X10	Y10	Z10	X11	Y11	Z11	X12	Y12	Z12	X13	Y13	Z13	X14	Y14	Z14	X15	Y15	Z15	X16	Y16	Z16	X17	Y17	Z17	X18	Y18	Z18	
437	3.64167	178.727	60.2839	59.8842	186.571	71.8005	31.6459	200.707	74.1042	6.41652	218.014	54.7626	-9.08013	231.864	73.8275	8.55207	215.938	67.3251	-22.2788	191.351	51.9707	-12.8378	240.772	55.0224	2.78034	214.631	44.4668	-19.5587	193.818	32.0832	10.6956	236.327	31.9502	2.64465	212.811	20.6756	-6.23692	196.309	20.3727	23.1278	237.978	11.9232	10.8481	212.613	8.49468	1.208	196.28	13.3736	30.8022	237.247	29.4012	62.0452	217.501	18.8105	86.8049	212.404	52.5739	74.9203	
438	3.65	172.023	60.6419	55.6879	170.737	69.7626	23.6804	179.383	74.8294	-6.73763	195.749	58.7518	-20.7185	223.782	88.0025	4.67702	212.173	78.1338	-23.1908	185.428	59.3223	-9.48406	235.242	64.5397	0.639603	215.504	55.2467	-25.0957	189.078	37.5817	1.25146	235.085	41.5012	2.45007	207.739	28.5386	-10.8581	191.773	28.289	14.1797	235.043	22.9723	8.08039	209.399	14.8729	-2.15665	194.135	15.7333	23.9075	233.408	39.9014	58.4396	217.173	25.2987	82.4923	205.579	59.6228	71.348	
439	3.65833	163.207	64.3063	51.4763	162.507	69.2865	17.5988	165.056	72.8146	-12.7455	176.686	63.8727	-33.7165	215.115	93.4187	2.34386	202.654	89.4793	-29.1231	183.349	64.1698	-23.2459	230.403	73.4683	-3.0492	213.5	67.8401	-32.2802	187.633	40.2927	-14.8008	229.496	48.4108	-4.75592	205.866	38.2295	-20.1659	185.456	28.5629	9.11545	228.388	32.4124	3.54384	204.054	19.5958	-7.70834	187.057	19.9804	18.7742	226.381	45.4021	56.6379	211.664	29.9733	82.2439	198.204	68.1556	65.9028	
440	3.66667	154.537	65.1465	50.4093	149.481	67.1808	18.4934	150.259	69.5308	-13.6576	159.639	62.9623	-37.6297	204.495	99.1272	-0.641207	198.814	98.6552	-32.5651	177.981	70.4835	-38.8283	223.222	82.5427	-7.0013	212.901	78.1418	-37.4034	184.208	45.5328	-36.6063	220.821	55.3074	-8.81915	203.217	40.1791	-25.8394	177.258	30.4257	-1.16605	221.601	33.9027	-3.19731	196.635	21.8486	-9.51498	183.216	21.3185	11.663	221.45	51.1741	50.3036	211.665	37.3018	77.0151	195.054	70.1507	62.743	
441	3.675	151.66	65.2668	45.788	143.707	67.0185	13.5944	138.454	68.7525	-16.7076	145.612	62.2283	-39.1098	194.211	101.805	-2.89651	191.529	103.449	-34.9678	173.51	84.5164	-53.4939	212.963	91.1104	-11.0102	209.871	83.9365	-42.3782	183.552	61.2529	-56.7759	214.265	58.151	-13.0574	195.667	40.2489	-31.3149	173.833	27.2255	-13.9445	215.124	35.761	-6.81689	191.57	23.4386	-11.7675	177.329	20.9008	15.2969	215.833	58.6536	46.3734	206.385	47.1762	72.4001	186.883	74.5365	61.3089	
442	3.68333	142.891	64.2789	47.4562	131.409	65.7308	14.7089	126.321	64.9232	-12.7805	127.288	60.9304	-40.1637	179.663	106.251	-11.102	176.369	108.306	-40.4304	167.242	94.8477	-65.1079	203.418	94.9471	-11.2985	200.936	95.4383	-44.9996	187.739	74.7788	-69.371	206.049	63.8416	-12.6493	191.291	46.1873	-34.8974	169.197	26.5525	-23.7183	209.061	41.1333	-5.28015	187.707	24.4748	-11.3664	173.474	17.9245	13.9907	207.631	65.3762	45.7193	200.307	50.0983	72.6424	180.217	77.0892	55.2915	
443	3.69167	135.01	65.7718	43.2652	124.732	63.8039	13.6552	115.359	62.771	-13.0966	115.531	58.4558	-38.7356	168.426	102.82	-9.40382	166.747	109.506	-40.7795	156.272	104.475	-68.1371	194.497	97.5214	-13.8059	197.595	98.0152	-47.0156	192.546	85.7889	-74.633	201.165	63.3816	-15.7932	188.746	44.5295	-38.0942	167.36	23.6684	-32.2813	205.608	41.2778	-8.55327	183.474	26.4444	-11.6606	170.467	20.5008	14.6787	203.678	67.8416	43.8779	198.319	58.3326	69.6721	173.412	79.4524	54.4225	
444	3.7	126.566	64.4697	45.9261	117.299	60.5617	15.7945	107.316	58.6065	-9.42549	104.943	54.4663	-31.6664	160.732	102.17	-16.5599	152.378	110.149	-42.4679	146.363	110.205	-67.1151	188.506	97.3981	-16.9075	191.658	101.998	-46.9293	189.819	98.0815	-79.0362	196.553	63.5595	-18.9904	188.555	45.7721	-37.7688	166.928	16.6788	-33.9283	203.647	43.0458	-3.79795	181.552	22.7175	-10.293	167.233	17.8127	15.7192	195.976	74.9619	39.4841	188.648	61.9493	71.3292	164.908	81.0975	53.9606	
445	3.70833	121.699	62.3202	47.6196	109.423	58.4378	17.5468	100.695	56.6054	-9.76274	92.9097	51.6418	-28.4039	151.394	99.7101	-17.2857	142.56	105.194	-37.6967	140.45	110.509	-62.1768	182.024	96.1184	-18.2119	185.017	101.995	-43.9178	190.699	101.108	-76.567	188.852	64.1736	-17.5138	187.971	43.0591	-36.673	169.484	18.1937	-39.2412	198.507	43.7784	-4.81831	179.289	21.5407	-10.6345	163.595	13.2164	13.0761	190.78	73.458	41.772	187.139	64.5339	68.4379	158.741	81.3434	55.5286	
446	3.71667	122.116	58.9918	46.4731	103.492	52.4716	22.7773	91.1722	50.6494	-7.25333	88.0323	45.6156	-23.9354	144.118	93.081	-14.693	139.744	100.172	-43.2439	134.734	105.359	-61.0538	177.349	93.4847	-18.9995	179.207	98.4735	-41.3224	182.758	102.875	-74.2805	185.932	60.867	-18.3267	185.331	42.6021	-36.4219	170.996	14.5128	-39.201	196.499	40.0931	-4.42497	180.114	17.6173	-8.35919	160.611	7.69471	13.6374	185.168	73.5397	43.1216	181.809	66.7308	70.2682	150.934	80.7799	54.4336	
447	3.725	114.229	54.8153	51.2359	101.739	49.0386	19.6209	89.1355	46.4233	-4.00782	77.3753	41.6842	-23.7621	136.435	89.8705	-14.7307	131.502	94.9764	-38.4972	129.624	102.203	-61.6745	172.074	88.3912	-14.8817	173.425	94.8553	-42.3267	178.106	101.619	-73.7433	181.074	61.7541	-13.6935	178.425	41.0286	-36.1247	166.355	8.93168	-40.2334	192.649	41.9306	-0.56096	178.784	16.136	-6.82603	160.503	5.157	10.2431	182.223	75.5634	38.4369	177.385	66.432	68.737	148.385	78.3623	52.5292	
448	3.73333	115.265	52.8685	50.2685	96.0318	45.1861	25.3313	86.142	39.7867	0.259238	72.2995	36.2427	-22.2561	131.828	87.0327	-14.3205	128.842	92.3077	-43.4807	125.731	97.178	-62.7236	168.602	86.7155	-16.6323	169.465	92.5222	-43.552	176.93	97.4691	-74.5521	180.086	58.1887	-16.595	179.483	34.0137	-35.6431	168.968	6.13099	-39.3089	191.805	41.3918	0.198222	177.046	17.9631	-8.22768	159.599	4.30815	8.42449	175.024	76.9824	41.755	172.287	66.7255	73.0642	140.513	80.1204	51.6697	
449	3.74167	114.291	50.7559	48.8944	99.1705	39.9201	26.3913	81.3373	35.2456	2.52417	72.6795	29.1234	-16.1283	132.191	81.8837	-15.3323	123.84	86.2886	-41.5634	122.36	89.405	-65.0501	162.186	82.7524	-18.0606	169.164	85.9764	-46.496	171.909	88.4819	-78.1486	181.394	54.6847	-15.3068	177.202	32.1067	-36.2678	171.11	5.1497	-35.9752	191.932	39.5077	1.08437	180.812	16.0659	-8.23097	161.571	2.93458	6.85138	174.252	73.379	41.4984	173.592	65.4474	69.0476	140.073	75.8577	53.6709	
450	3.75	109.779	49.8085	51.2358	95.2535	40.2626	24.1809	84.6183	33.8975	-1.33978	74.8817	25.7495	-19.8234	127.521	81.682	-18.0033	125.858	82.695	-40.4994	116.241	82.2341	-70.3614	163.801	80.1063	-16.43	167.189	83.062	-45.3517	171.658	78.0293	-76.8483	175.089	55.1095	-12.2035	175.44	29.2634	-33.8119	163.582	2.34656	-34.2937	188.98	38.5763	0.0280396	177.697	14.047	-7.11294	160.475	-0.589269	13.3891	173.53	71.0459	40.7655	170.494	64.85	73.467	140.018	75.4127	54.4446	
